<?xml version="1.0" standalone="no"?>
<!DOCTYPE svg PUBLIC "-//W3C//DTD SVG 20010904//EN"
 "http://www.w3.org/TR/2001/REC-SVG-20010904/DTD/svg10.dtd">
<svg version="1.0" xmlns="http://www.w3.org/2000/svg"
 width="177.000000pt" height="177.000000pt" viewBox="0 0 177.000000 177.000000"
 preserveAspectRatio="xMidYMid meet">
<metadata>
Created by potrace 1.14, written by Peter Selinger 2001-2017
</metadata>
<g transform="translate(0.000000,177.000000) scale(0.100000,-0.100000)"
fill="#000000" stroke="none">
<path d="M396 1265 c-9 -26 -7 -32 5 -12 6 10 9 21 6 23 -2 3 -7 -2 -11 -11z"/>
<path d="M260 1242 c0 -12 6 -25 14 -28 9 -3 12 -12 9 -21 -4 -11 -2 -14 5 -9
6 3 16 -3 22 -14 8 -15 8 -21 -2 -25 -7 -3 -14 -16 -14 -30 -1 -14 -5 -33 -9
-43 -5 -9 -9 -21 -11 -27 -1 -5 -16 -47 -34 -92 l-32 -83 -43 0 c-34 0 -44 -4
-48 -20 -3 -11 -2 -22 3 -25 13 -8 1465 -9 1478 -1 7 4 12 16 12 27 0 18 -8
19 -105 19 l-105 0 -1 33 c0 17 -1 59 -1 92 l-1 60 134 2 c74 0 140 1 147 2 8
1 12 21 12 66 l0 65 -245 0 -245 0 0 -42 0 -42 -27 26 c-54 50 -114 69 -222
69 -114 1 -211 -42 -249 -109 -34 -60 -17 -152 36 -199 l27 -24 -50 3 -49 3
-28 75 c-16 41 -31 82 -35 90 -3 8 -7 20 -8 25 -2 6 -13 36 -25 68 l-21 57
-80 1 c-43 1 -83 3 -89 4 -5 1 -15 3 -22 4 -6 0 -3 10 8 22 19 22 19 22 -3 10
-13 -6 -23 -8 -23 -3 0 4 -8 8 -18 9 -31 2 -47 8 -54 18 -4 6 -8 0 -8 -13z
m745 -176 c14 -9 31 -28 37 -40 9 -22 16 -24 82 -23 l71 2 1 -40 c1 -53 -16
-58 -93 -29 -34 13 -74 26 -88 28 -79 14 -136 38 -144 59 -21 54 71 84 134 43z
m-544 -137 l16 -59 -43 0 -43 0 15 48 c9 26 18 55 21 65 8 26 16 14 34 -54z"/>
<path d="M1090 771 c-28 -4 -40 -17 -40 -47 0 -46 -68 -74 -130 -54 -27 9 -45
25 -65 55 l-27 43 -154 0 -154 0 6 -37 c4 -20 17 -66 30 -103 12 -36 20 -69
16 -72 -3 -3 6 -6 19 -7 119 -4 174 -2 176 5 4 21 28 22 66 3 32 -15 61 -20
122 -19 44 1 90 3 103 6 27 6 124 57 134 71 4 5 8 -6 8 -26 0 -21 6 -39 13
-41 6 -2 50 -4 97 -3 l85 1 1 107 c0 101 -1 108 -20 112 -27 6 -253 11 -286 6z"/>
<path d="M145 696 c-14 -39 -33 -86 -41 -105 -8 -18 -12 -36 -9 -39 3 -4 47
-7 96 -7 78 -1 92 2 101 18 12 23 58 176 58 194 0 11 -19 14 -89 12 l-89 -3
-27 -70z"/>
</g>
</svg>
